<svg xmlns="http://www.w3.org/2000/svg" width="40" height="40" fill="none" viewBox="0 0 40 40">
  <path stroke="#101828" stroke-linecap="round" stroke-linejoin="round" stroke-width="3.333" d="M10 36.667a3.333 3.333 0 0 1-3.333-3.334V6.667A3.333 3.333 0 0 1 10 3.333h13.334a4 4 0 0 1 2.84 1.177l5.98 5.98a4.001 4.001 0 0 1 1.18 2.843v20A3.333 3.333 0 0 1 30 36.667H10Z"/>
  <path stroke="#101828" stroke-linecap="round" stroke-linejoin="round" stroke-width="3.333" d="M23.333 3.333v8.334A1.666 1.666 0 0 0 25 13.333h8.333M16.666 15h-3.333m13.333 6.667H13.333m13.333 6.666H13.333"/>
</svg>
