<svg xmlns="http://www.w3.org/2000/svg" width="40" height="40" fill="none" viewBox="0 0 40 40">
  <path stroke="#C62030" stroke-linecap="round" stroke-linejoin="round" stroke-width="3.333" d="M20 36.667c9.205 0 16.667-7.462 16.667-16.667 0-9.205-7.462-16.667-16.667-16.667-9.205 0-16.666 7.462-16.666 16.667 0 9.205 7.461 16.667 16.666 16.667Z"/>
  <path stroke="#C62030" stroke-linecap="round" stroke-linejoin="round" stroke-width="3.333" d="M20 30c5.523 0 10-4.477 10-10s-4.477-10-10-10-10 4.477-10 10 4.477 10 10 10Z"/>
  <path stroke="#C62030" stroke-linecap="round" stroke-linejoin="round" stroke-width="3.333" d="M20 23.333a3.333 3.333 0 1 0 0-6.666 3.333 3.333 0 0 0 0 6.666Z"/>
</svg>
