<svg xmlns="http://www.w3.org/2000/svg" width="40" height="40" fill="none" viewBox="0 0 40 40">
  <path stroke="#101828" stroke-linecap="round" stroke-linejoin="round" stroke-width="3.333" d="M16.667 20h6.667m-6.667-6.667h6.667m0 21.667v-5a3.333 3.333 0 0 0-6.667 0v5"/>
  <path stroke="#101828" stroke-linecap="round" stroke-linejoin="round" stroke-width="3.333" d="M10 16.667H6.666A3.333 3.333 0 0 0 3.333 20v11.667A3.333 3.333 0 0 0 6.666 35h26.667a3.333 3.333 0 0 0 3.333-3.333V15a3.333 3.333 0 0 0-3.333-3.333H30"/>
  <path stroke="#101828" stroke-linecap="round" stroke-linejoin="round" stroke-width="3.333" d="M10 35V8.333A3.333 3.333 0 0 1 13.333 5h13.334A3.333 3.333 0 0 1 30 8.333V35"/>
</svg>
