<svg xmlns="http://www.w3.org/2000/svg" width="608" height="868" fill="none" viewBox="0 0 608 868">
  <path fill="#D91F36" d="m53.296 654.239 3.218 2.048c-2.409 4.595-4.784 9.189-7.365 13.853-11.598 20.719-26.036 46.514-23.214 84.096 2.582 34.107 22.32 68.696 50.3 88.158C98.141 857.675 134.777 868 171.242 868c20.064 0 40.112-3.132 57.613-10.256 12.682 3.923 43.881 11.925 72.773 5.885 20.031-4.233 36.344-16.158 44.311-22.904 28.015-23.627 39.218-58.835 32.421-101.821-5.042-31.594-18.052-60.883-30.648-89.225-16.382-36.894-33.332-75.01-33.745-119.683-.431-41.145 14.265-71.965 43.691-91.599 34.124-22.698 96.349-16.262 142.863.172 36.086 12.785 69.297 33.676 104.557 65.701l2.289-2.186c-34.262-41.85-78.556-87.452-147.303-108.463-37.858-11.564-74.58-10.015-106.157 4.526-29.289 13.491-51.659 37.238-62.982 66.871-15.746 41.093-3.476 95.987.654 111.836 5.833 22.199 14.334 41.73 22.56 60.625 4.766 10.944 9.258 21.269 13.078 31.732 15.591 43.209 19.893 78.435 13.13 107.723-8.088 35.828-31.457 56.942-65.77 59.472-20.942 1.548-39.613-5.146-51.814-10.325-41.317-17.363-71.294-44.845-100.892-73.875-.757-.723-1.497-1.635-2.22-2.495-2.133-2.53-4.525-5.438-7.193-3.734l-1.239.791.689 1.291c28.187 52.743 61.966 86.557 105.899 105.882-81.619 2.202-138.388-22.233-156.302-67.405-13.354-34.003 4.526-77.643 10.342-90.188 4.767-10.205 10.204-20.03 15.453-29.529 7.847-14.145 15.952-28.755 22.353-45.533 12.339-32.593 20.323-72.206 21.39-106.003 1.342-43.709-8.621-76.749-28.806-95.557-.31-.637-.93-1.102-1.635-1.17-.809-.086-1.876.413-2.134 1.738l-.103.516.24.482c13.888 28.548 10.067 70.829 6.54 93.492-7.28 46.617-22.663 91.548-47.873 140.092l-1.773-2.805c-30.39-48.183-38.065-117.532-19.067-172.512 6.643-19.222 14.971-36.344 23.472-48.252 14.077-19.704 46.359-33.814 70.967-42.177 23.679-8.054 52.468-14.834 85.611-20.168 3.201-.517 6.35-1.016 9.516-1.515 27.396-4.336 53.26-8.432 74.684-21.166 19.135-11.426 41.472-32.782 39.235-69.607-1.635-24.178-10.188-48.923-25.434-73.514-13.078-21.045-29.788-35.982-51.005-45.602 11.065-23.265 8.432-60.349-10.429-71.878 7.366-17.897 7.159-40.061-.619-58.233-5.816-13.56-15.057-23.214-26.053-27.223l-.62-.224-.585.275c-12.338 5.627-23.059 18.327-28.703 33.987-6.057 16.812-5.507 34.399 1.549 49.61-14.318 15.953-23.283 46.067-14.232 70.537-47.064 17.725-72.463 62.587-73.479 129.836l-.172 12.39 3.287-11.942c14.644-52.915 34.003-105.332 94.869-114.297l2.03-.293-.791-1.893c-8.707-20.615-12.786-49.49-2.254-67.542 1.858-3.218 4.009-5.455 6.332-7.847 1.824-1.876 3.734-3.855 5.386-6.28l.499-.74-.912-1.98c-4.147-9.086-9.292-20.374-7.485-34.726.963-8.38 8.191-24.126 14.851-24.126h.395c5.834.568 10.325 16.21 11.203 24.797 1.566 15.952-3.442 26.81-8.708 36.55l-.585 1.085.912.843c8.57 7.847 14.559 23.764 15.247 40.525.637 15.66-3.304 29.306-10.858 37.462l-1.704 1.859 2.409.74c21.459 6.625 37.893 19.29 51.676 39.837 8.605 12.803 22.973 38.908 22.698 69.521-.103 3.184-1.205 11.719-2.908 15.952-12.906 33.35-62.586 41.162-106.399 48.08-8.724 1.359-16.984 2.667-24.848 4.147l-8.57 1.6c-23.472 4.371-45.671 8.501-65.649 17.26-23.834 10.308-44.26 23.455-57.493 37.015C13.924 431.462-.841 476.685.037 532.99c.826 55.979 20.237 100.169 53.26 121.232"/>
</svg>
