<svg width="144" height="59" viewBox="0 0 144 59" fill="none" xmlns="http://www.w3.org/2000/svg">
<g clip-path="url(#clip0_3_7)">
<path fill-rule="evenodd" clip-rule="evenodd" d="M31.383 11.3207C31.2611 11.9396 30.6013 12.5369 30.4507 12.6089L20.7044 18.7694C20.7761 17.9418 21.4574 17.6539 22.1602 17.2005L31.383 11.3135V11.3207ZM79.5408 23.8864C79.1535 23.9728 79.2683 24.9084 78.6874 24.4406C77.4036 23.4186 79.4762 21.4179 79.1177 20.5974C78.6658 21.6266 76.8514 24.491 78.3288 25.4697C79.0603 25.9519 79.5695 24.3614 79.5408 23.8864ZM85.859 20.1153C85.859 20.5615 86.4184 21.13 86.3969 21.6986C85.9236 21.9433 85.5793 21.7202 85.4359 21.2883C85.3427 21.0077 85.1203 19.813 84.8837 19.6547L84.6542 20.2736C84.855 20.5831 84.9411 21.2955 84.9195 21.6482C84.898 22.3103 83.7721 22.555 83.894 21.3747C83.937 20.9501 84.0374 20.3384 83.7004 20.0217C83.6573 20.1225 83.4637 20.5183 83.4565 20.6046C83.7219 21.0868 83.5282 21.7633 83.5928 22.2167C83.7362 23.2675 85.0271 22.9796 85.0271 21.6842C85.4072 22.7349 86.4256 22.9148 86.6694 21.7489C86.8631 20.8493 86.318 20.4103 86.0957 19.5899C86.0814 19.705 85.859 20.0577 85.859 20.1153ZM71.2145 14.3793C72.197 14.1706 73.8895 14.0267 74.872 14.4729C74.9222 15.1566 74.5923 15.6244 74.2409 15.9771C73.4162 16.8695 72.154 17.8123 70.6981 17.9274C70.8989 17.5748 72.8926 16.5096 73.4664 16.0922C72.4337 15.9986 71.1643 16.0922 70.3467 16.3729C70.4614 15.7827 70.9061 14.9119 71.2145 14.3721V14.3793ZM26.2194 35.2647C26.2409 35.6677 26.0114 35.8764 25.7963 36.1859C25.6815 36.3514 25.3731 36.8696 25.1652 36.8696C24.9787 36.8696 24.5986 36.3514 24.4337 36.2291C24.1038 35.97 23.8456 35.9268 23.6161 35.6893C23.2145 36.1643 22.8415 36.6753 22.3682 37.0567C21.8519 36.6321 21.357 36.1859 20.9411 35.6893C21.1992 35.0992 21.6008 34.6314 21.9523 34.1348C22.5834 34.4658 22.9133 35.0776 23.5013 35.4518C24.0607 35.1495 24.2042 34.4155 24.699 34.0412C25.3301 34.3219 25.7102 34.8904 26.2266 35.2647H26.2194ZM68.2382 34.3435C68.7116 33.9405 68.9411 33.3287 69.4789 33.0265C69.9738 33.4511 70.5618 33.8037 70.9133 34.3939C70.5834 34.912 70.2822 35.4734 69.7658 35.8044C69.2494 35.4302 68.8765 34.9336 68.3386 34.581C67.8008 34.8401 67.6143 35.7325 67.0477 35.7613C66.4883 35.7613 66.1584 34.8401 65.6636 34.581C65.807 33.8757 66.3234 33.5662 66.6246 33.0265C67.2342 33.3791 67.6788 33.9189 68.2454 34.3435H68.2382ZM8.62729 32.3427C8.88547 32.7674 9.86799 33.192 9.82496 33.9477C9.80345 34.1851 9.52375 34.4658 9.3588 34.6817C9.24406 34.8185 8.95719 35.3151 8.84244 35.3151C8.54123 35.3367 8.08942 34.2067 7.69498 34.1852C7.25033 34.5378 6.97064 35.387 6.31084 35.2647C5.816 35.1711 5.32832 34.0196 4.97691 33.7102C5.25661 33.12 5.49327 32.5083 5.93792 32.1124C6.38256 32.3931 6.71246 33.1272 7.13559 33.4799C7.93164 34.142 8.11811 32.8681 8.63447 32.3499L8.62729 32.3427ZM38.6336 21.9864C38.3252 21.3963 37.7156 21.094 37.3857 20.5255C37.6941 19.9857 37.9953 19.4459 38.3969 18.971C38.7985 19.4891 39.6878 19.8202 39.5946 20.619C39.5229 21.1588 38.985 21.605 38.6336 21.9864ZM64.1575 18.1217C64.7456 18.4744 65.4269 18.755 65.8214 19.2948C65.7497 20.0505 65.348 20.4751 64.9966 20.9429C64.4301 20.5903 63.8707 20.2376 63.3758 19.813C63.5121 19.1293 63.9137 18.7047 64.1504 18.1145L64.1575 18.1217ZM96.6954 16.4305C97.2333 17.5388 97.7497 18.6399 97.8429 20.1728C97.4198 20.1728 97.4413 19.705 97.1186 19.5827C96.9536 21.9361 97.305 24.4766 97.4485 26.8299C97.6134 29.1833 97.8285 32.0333 96.7241 33.5374C96.7241 29.8886 96.4157 26.1246 96.2293 22.4974C96.1791 21.2452 96.2723 19.9569 96.136 18.7982C96.1145 18.5895 95.9496 18.4024 95.9496 18.1649C95.9711 17.5532 96.5376 16.9918 96.7026 16.4233L96.6954 16.4305ZM36.8478 31.3784C35.686 29.7447 35.6573 26.6572 37.5291 25.1603C39.8528 23.3395 43.2378 26.9163 44.8944 22.2887C44.708 24.383 43.7685 26.4053 41.3516 26.4773C39.6878 26.5493 37.7156 25.772 36.8478 27.2546C36.6614 29.1114 38.6909 31.2992 40.491 31.3424C42.1835 31.3856 44.9088 29.831 46.422 29.0178C46.0132 30.2269 45.3534 30.9394 44.5 31.4575C42.2768 32.5587 38.7483 34.0772 36.3601 33.3503C33.7783 32.5515 33.8501 28.5932 33.5704 25.369C33.3839 22.9724 33.1616 20.1584 32.5807 17.8338C32.4731 17.1358 32.509 16.3297 32.9608 15.7611C33.7281 17.2365 34.18 24.1095 34.3951 26.0743C34.6748 28.5212 34.7896 30.7594 36.855 31.3712L36.8478 31.3784ZM91.3238 15.6028C91.9334 16.7111 92.3996 18.1937 92.4713 19.6978C92.0697 19.7698 92.0984 19.0141 91.6968 18.9206C91.6681 22.2455 92.0769 25.7432 92.292 29.0898C92.3064 30.4356 91.7541 33.2136 90.1907 33.3935C89.6026 33.4655 88.8783 33.2568 88.4552 32.9905C87.7237 32.5443 87.6089 31.6231 87.2575 30.8962C86.5977 31.5079 86.2965 33.0624 85.0988 33.1776C84.2311 33.2711 83.6717 32.6378 83.478 31.8102C82.6533 32.0909 82.5385 33.1272 81.6493 33.3647C80.2866 33.7461 78.9527 32.8249 79.0675 31.3208C77.4969 31.9541 75.3167 33.156 73.4162 32.3356C72.4982 31.9613 71.7237 30.853 71.6089 29.5576C70.7411 29.8023 70.0096 32.6018 68.0661 32.6666C66.933 32.7026 65.9289 31.803 65.2763 30.9538C62.9886 32.2564 56.9859 33.1848 54.0527 32.7962C50.9904 32.3859 49.3839 30.9681 49.8788 27.9095C50.0796 26.6716 50.5959 25.4625 51.4135 24.6205C50.8111 25.8008 50.2517 26.8155 50.474 27.9023C50.8254 29.6367 52.5968 30.5219 54.1746 30.8242C57.5309 31.4647 62.2499 30.3852 64.6022 29.536C64.0356 28.1902 64.1575 26.3334 64.7887 24.966C65.0468 24.3542 65.5847 23.3395 66.3162 23.361C67.1625 23.3826 68.2597 25.1027 68.3817 25.9951C68.5538 27.5496 67.6645 29.0754 66.5529 30.0901C66.9545 30.6083 67.9155 30.7019 68.6614 30.6299C70.6551 30.3924 70.82 28.0174 72.2974 27.3553C72.2472 27.9886 71.946 28.442 72.1109 29.0538C72.3476 29.9246 73.6815 30.5147 74.7358 30.6083C76.916 30.817 78.8164 29.8094 80.1575 29.3345C80.2723 29.8094 79.7344 29.9966 79.7344 30.414C79.7344 31.3568 81.47 31.7598 82.4095 31.3352C83.4207 30.9106 83.7434 29.428 84.6112 29.1905C84.6829 29.7087 84.0948 29.8023 84.0733 30.2988C84.0733 31.0545 85.106 31.4287 85.9523 31.1697C86.985 30.8602 87.2432 29.2409 88.0607 28.9314C88.0822 29.2841 87.7093 29.4496 87.7308 29.7591C87.7523 30.7019 90.1692 31.9469 91.1804 31.2632C91.4386 29.2121 91.0872 26.9811 90.9437 24.7428C90.7788 22.4614 90.872 20.1297 90.6354 18.0785C90.6138 17.7979 90.4704 17.582 90.4919 17.2509C90.5852 16.5672 91.1015 16.1714 91.3167 15.5812L91.3238 15.6028ZM67.6071 27.6792C67.7362 26.9811 66.5672 25.1963 65.6349 25.297C64.1575 25.4769 64.9393 28.1254 65.6564 29.0178C66.3521 28.7011 67.1266 28.3053 67.6 27.6792H67.6071ZM28.9446 15.4157C29.7407 16.4017 30.0706 18.1001 30.3718 19.4172C29.9487 19.6043 29.9487 18.9494 29.5973 18.8774C29.3534 19.4316 29.4825 19.9353 29.504 20.4823L30.3001 27.3553C30.4292 29.2697 30.4507 33.9189 27.7398 33.6958C26.9653 33.6238 26.2409 32.8969 25.9541 32.2852C25.1795 30.5219 25.8106 27.3841 24.8066 25.9087C24.3835 27.4417 23.8241 28.8307 22.3682 29.3201C22.2463 33.156 18.9688 36.1067 15.4189 37.0279C12.5072 37.7836 11.1804 36.0132 11.4888 33.2568C11.6251 32.0693 12.0195 30.8602 12.3924 30.0038C10.5134 30.2413 7.98184 30.7594 6.1961 30.0038C4.94105 29.4856 3.22702 27.9886 2.44531 26.8012C6.47579 29.3417 15.4404 28.4061 17.764 24.8508C17.2548 23.4042 13.5327 24.0232 13.167 22.2815C12.7295 20.5183 14.8666 17.3876 16.2149 16.4448C16.6381 16.1642 17.7425 15.5021 18.4238 15.9051C19.0119 16.2361 18.7537 17.6467 18.517 18.2369C18.2804 18.2873 18.0509 17.7691 17.6923 17.6467C16.0715 17.1789 14.2642 19.3668 13.7766 20.4751C14.3144 22.4039 18.0724 21.3027 18.4668 23.2531C18.6748 24.2679 18.1369 25.4409 17.7353 26.175C16.7528 27.9886 14.9886 28.9026 12.9016 29.6367C12.2562 30.5075 11.7972 32.0621 11.9621 33.3287C12.1773 35.0056 13.3319 35.495 14.8451 35.2863C16.9464 34.9912 20.1235 33.1632 21.3498 31.4C21.1849 30.0326 20.7618 28.953 20.1522 28.0318C20.2239 27.3985 20.2454 26.7364 20.4319 26.2182C21.2279 26.7148 21.1777 28.0534 23.1069 27.1394C24.1827 26.5996 24.4193 24.9731 24.8424 23.9368C25.6385 24.455 25.6887 25.8656 25.8034 27.1826C25.911 28.3917 25.9971 31.3712 27.5892 31.7022C28.5717 31.9109 29.253 31.4647 29.6546 30.9681C29.3247 27.9814 28.8299 24.5413 28.5502 21.3171C28.457 20.1872 28.457 19.0573 28.2705 18.0641C28.2275 17.8554 28.084 17.7115 28.084 17.474C28.1271 16.6967 28.8156 16.0634 28.9303 15.4229L28.9446 15.4157ZM42.8792 13.1055C43.0513 13.4581 42.413 13.8396 42.0831 14.0051L35.9298 17.1573C35.8725 16.668 36.8191 16.1642 37.3642 15.8619L42.8792 13.1055ZM92.4283 11.954C92.1629 12.5082 91.9765 12.7744 91.0872 13.1991C85.4789 15.5236 77.418 18.6759 70.6192 21.7705C70.6192 21.2308 71.2647 20.8206 71.6161 20.655C78.3575 17.4524 86.8846 14.2354 92.4283 11.9468V11.954ZM36.0231 11.4574C37.5363 12.2923 37.5793 14.4081 36.6112 15.8403C37.0701 14.3506 37.3283 13.4797 35.9729 12.2491L36.0231 11.4574Z" fill="#C62030"/>
<path fill-rule="evenodd" clip-rule="evenodd" d="M56.4479 43.3108L56.4981 43.3612C55.91 43.6203 55.3937 44.4191 55.7236 45.3187C56.6272 44.9013 58.5564 44.2176 60.0409 44.3831C62.2928 44.6422 62.1422 46.6501 60.0839 47.1611C58.5062 47.5498 56.9571 47.2259 55.91 45.952C55.8168 45.952 55.1857 46.5854 55.0853 46.6861C54.4757 47.3482 53.6079 48.73 53.5147 49.6512C53.3999 50.6876 53.7514 51.58 54.6191 51.652C55.4295 51.7023 56.3547 51.1122 56.7778 50.6372C57.4591 49.8599 57.3874 48.3774 59.0799 48.7804C58.1906 50.3565 57.789 51.7024 56.4479 53.005C55.4367 53.9838 54.0454 54.7898 52.2023 54.6675C51.3345 54.5955 50.187 54.1277 50.0938 53.0626C50.0723 52.5444 50.2372 51.9542 50.6317 51.7887C51.1265 51.6016 51.7576 51.8607 51.6859 52.5156C51.6142 53.1273 50.9114 52.8898 51.1695 53.7894C51.3345 54.4012 52.1808 54.5883 52.9266 54.5163C54.7769 54.3508 56.0463 51.947 56.7706 50.774C55.7738 52.0406 52.4318 52.7747 52.1234 50.3277C51.815 47.7585 54.0669 46.3983 55.573 45.4051C55.2717 44.4191 55.7379 43.5483 56.4407 43.3108H56.4479ZM79.7487 44.6782L75.6106 51.3713C75.0871 52.2277 74.1978 53.2929 74.4703 54.3292C76.1915 54.1205 77.3677 51.7887 78.6442 50.774C77.8697 51.8103 76.0409 54.2141 74.8217 54.5163C72.6559 55.0921 73.2942 52.9258 73.9468 51.8751L78.2713 44.7718C78.7446 44.6998 79.2538 44.6998 79.7487 44.6782ZM38.8845 46.427C39.2933 46.427 39.6232 46.7581 39.6232 47.1683C39.6232 47.5785 39.2933 47.9096 38.8845 47.9096C38.4757 47.9096 38.1458 47.5785 38.1458 47.1683C38.1458 46.7581 38.4757 46.427 38.8845 46.427ZM23.2574 51.2921C23.6303 50.5652 23.6303 49.1978 22.5761 49.5001C22.1745 49.6153 21.9665 50.0902 22.0597 50.6516C22.153 51.2417 22.8128 51.6376 23.0709 52.3717C23.3721 53.2929 22.906 53.9766 22.2462 54.3724C24.2901 53.8326 25.2009 52.1342 26.4703 50.8171C25.3228 52.7243 23.3004 54.9122 20.6254 54.6531C20.0588 54.6027 19.2915 54.2788 19.0763 53.7319C18.8396 53.005 19.2197 52.0838 19.7074 51.9183C20.8764 51.544 20.9983 53.3792 19.8007 53.0482C19.1193 54.9337 21.8876 54.8114 22.0526 53.4512C22.1673 52.4148 21.0916 52.0406 20.9481 51.1194C20.6684 49.2338 23.6447 48.7156 24.4909 50.1046C24.6344 51.0186 24.0678 51.4433 23.2502 51.2777L23.2574 51.2921ZM38.1028 49.5505C37.7298 50.3277 37.1633 51.033 36.7186 51.7887C36.274 52.494 35.6142 53.2713 35.8007 54.2644C37.2852 54.1997 38.7841 51.7599 39.9746 50.7596C39.3578 51.7671 37.3641 54.1637 36.0445 54.5163C35.1982 54.7394 34.5026 54.394 34.603 53.4224C34.7679 52.0334 36.3385 50.5724 36.7617 49.5865C37.2565 49.6296 37.6294 49.5433 38.1028 49.5649V49.5505ZM95.2108 49.4785C94.8092 50.2054 94.2928 50.9611 93.8267 51.7167C93.4035 52.4004 92.629 53.2209 92.9589 54.1925C94.1565 54.0269 94.8594 53.0842 95.4905 52.3069C96.1216 51.508 96.6595 50.4933 97.1113 49.5289C97.5559 49.5289 97.9575 49.4569 98.4452 49.4857C97.5057 51.2058 96.5949 52.9258 95.6339 54.5955C97.4627 54.0054 98.7106 52.6451 99.8078 51.2274C99.9513 51.0618 100.044 50.7811 100.303 50.738C99.1552 52.53 97.7209 54.0341 95.5622 54.7826C94.4147 56.5746 92.6075 58.7841 89.581 58.7841C88.3116 58.7841 86.4613 58.1723 87.0494 56.4091C87.3076 55.6318 88.5985 55.1353 89.6312 55.5383C87.5945 55.3728 87.8455 58.3163 89.2368 58.597C89.5667 58.6689 90.1548 58.6185 90.4344 58.5538C93.0163 57.8701 94.2139 54.5307 95.4546 52.6667C94.845 53.1129 94.092 54.2716 93.1095 54.5235C92.2847 54.7322 91.6321 54.4803 91.7254 53.5591C91.8401 52.1198 93.3892 50.6372 93.7908 49.5577C94.2856 49.5361 94.7088 49.4641 95.2251 49.4857L95.2108 49.4785ZM86.9275 52.0262C87.3291 51.4361 88.3618 50.5868 89.1794 49.9319C89.6456 49.5577 90.0472 49.205 91.0082 49.2986C90.75 49.8599 90.1189 50.4285 90.3269 51.2058C90.5851 52.127 91.9907 51.2274 92.2059 50.7596C92.0194 51.7239 89.6241 52.5516 89.0862 51.2058C89.0647 50.7596 89.0862 50.3565 89.2296 50.0759C87.6303 51.1122 86.6048 52.7099 85.6438 54.4084H84.3027C85.2206 52.7603 86.2032 51.1842 87.1427 49.5361C87.659 49.5145 88.1252 49.4641 88.6702 49.4929C88.1323 50.3853 87.4726 51.1626 86.9347 52.0334L86.9275 52.0262ZM79.7917 52.3069C79.4905 55.344 82.4882 53.955 83.6644 52.8467C84.4605 52.091 85.027 51.1266 85.6366 50.7524C84.3672 52.1917 83.2413 54.4012 80.4945 54.6387C78.9024 54.7826 77.9127 53.5591 78.5725 51.9542C79.0889 50.6804 80.7527 49.4137 82.2085 49.2698C83.0835 49.1906 84.1808 49.6512 83.5998 50.6588C83.0261 51.6592 80.8388 52.0982 79.7917 52.3069ZM82.0006 49.4785C81.018 49.788 80.1718 51.2418 79.8419 52.163C81.0109 51.8535 82.2803 51.2777 82.5743 50.119C82.7034 49.6153 82.6173 49.3202 82.0006 49.4785ZM65.0826 50.119C65.2906 50.0471 65.3193 49.7664 65.4555 49.6224C65.8786 49.5505 66.3663 49.5505 66.8396 49.5289C66.2803 50.6804 65.3623 51.6952 64.7312 52.9402C64.5447 53.3144 64.265 53.8542 64.5447 54.3076C66.6962 54.1277 67.5281 51.508 68.7688 50.774C67.9226 51.7599 66.3305 54.4444 64.5447 54.6603C63.7917 54.7538 63.2036 54.4731 63.347 53.6023C62.6657 54.6171 59.876 55.5311 59.9907 53.0626C60.0839 51.3929 62.2426 49.0395 64.1646 49.3202C64.6093 49.3634 64.889 49.6512 65.0826 50.119ZM61.3318 52.897C61.2888 53.4152 61.3318 53.8614 61.6115 54.0701C62.4793 54.6819 63.5622 52.9618 63.8634 52.4724C64.1646 51.9542 65.4842 49.385 63.9566 49.5073C62.7375 49.5793 61.4681 51.7455 61.3318 52.897ZM31.347 50.119C31.555 50.0255 31.555 49.7664 31.72 49.6224C32.1431 49.5505 32.6308 49.5505 33.1041 49.5289C32.516 50.6804 31.6267 51.6952 30.9956 52.9402C30.8092 53.3144 30.4793 53.8542 30.8092 54.3076C32.3511 54.2428 33.9647 51.8463 34.9831 50.7524C34.187 51.7887 32.4945 54.4228 30.8092 54.6387C30.0346 54.7538 29.425 54.3796 29.6115 53.5807C28.8585 54.5955 26.0687 55.5599 26.2552 52.9474C26.3699 51.1554 28.6935 49.0395 30.4291 49.2986C30.8737 49.3706 31.1534 49.6728 31.347 50.1262V50.119ZM29.7764 49.6009C28.9087 49.9751 27.8544 51.6016 27.6178 52.8754C27.3811 54.2213 28.2991 54.5235 29.0951 53.8398C29.6832 53.3432 30.7159 51.7887 30.9024 50.7308C31.0817 49.8096 30.551 49.1331 29.7764 49.6009ZM47.2036 46.8661C47.4618 46.2759 47.6769 45.0093 46.9669 44.8653C46.594 44.7933 46.1422 45.1028 45.8625 45.3619C44.715 46.3263 43.7254 48.3054 43.0225 49.5505C44.1485 49.6225 45.5541 49.4137 46.5223 49.644C46.0777 49.9031 45.3964 49.788 44.7366 49.788H42.8576C41.7531 51.508 40.8639 53.6023 39.5012 55.4807C38.2605 57.2008 36.4963 58.8273 33.7998 58.7985C32.767 58.7769 31.5263 58.3954 31.2682 57.5246C30.7518 55.8981 32.3009 55.0489 33.7998 55.3368C32.9535 55.5743 32.179 56.2796 32.3654 57.4311C32.5089 58.2803 33.3049 58.7481 34.4739 58.6042C36.3744 58.3667 37.7155 56.1788 38.6048 54.8114C39.7307 53.0482 40.5985 51.3497 41.4663 49.7952C41.0647 49.7232 40.4551 49.9103 40.2184 49.7016C40.4264 49.3993 41.1579 49.6296 41.6025 49.5577C42.7285 47.9816 44.1843 45.0165 46.6227 44.7286C47.469 44.635 48.3798 44.9157 48.5447 45.5562C48.8029 46.499 48.0786 46.8948 47.1821 46.8517L47.2036 46.8661ZM74.8002 44.6782L70.6622 51.3713C70.1386 52.2277 69.2493 53.2929 69.5219 54.3292C71.2431 54.1205 72.4192 51.7887 73.6958 50.774C72.9212 51.8103 71.0925 54.2141 69.8733 54.5163C67.7074 55.0921 68.3457 52.9258 68.9983 51.8751L73.3228 44.7718C73.7962 44.6998 74.3054 44.6998 74.8002 44.6782ZM21.1418 44.6782L16.8746 51.6952C16.43 52.422 15.6769 53.2281 15.8204 54.286C17.3623 54.6171 18.9329 51.5872 20.0445 50.7811C19.105 51.8607 17.9575 53.8182 16.5017 54.43C16.0284 54.6171 15.0243 54.6891 14.7661 54.286C14.2426 53.4512 15.3399 52.019 15.7989 51.2489L19.6716 44.7718C20.1377 44.6998 20.6541 44.6998 21.1489 44.6782H21.1418ZM10.8432 54.2644C13.0019 53.8398 13.7764 51.983 15.1104 50.7092C14.4076 51.7887 13.0951 53.5376 11.754 54.2644C10.8145 54.7826 9.52365 54.6603 9.4089 53.4368C9.29415 52.0478 9.99698 51.0114 10.3197 50.0687H8.49093C7.7379 50.8603 6.9777 51.7311 6.19599 52.4868C5.1059 53.5304 3.67873 54.5379 1.97188 54.4516C1.01087 54.4084 -0.0935662 53.9334 -0.000334424 52.6883C0.0713823 51.7959 0.982185 51.3929 1.52723 52.0982C1.62046 52.7819 1.26905 52.9906 0.752691 53.0626C0.867438 53.8614 1.34077 54.2357 2.13682 54.286C3.75762 54.3796 5.09155 53.2497 6.05256 52.3357C7.10679 51.3713 7.93153 50.2918 8.82082 49.277C10.6496 47.2043 13.2171 44.9373 15.8419 44.0449C14.3789 45.6282 11.8831 49.2122 11.0656 51.1842C10.7859 52.0334 10.1978 53.372 10.8289 54.2716L10.8432 54.2644ZM14.2928 44.9589C11.9262 46.1392 10.2336 48.0176 8.59133 49.9247H10.4201C11.4743 48.0391 12.7868 46.3911 14.2928 44.9589ZM59.9477 44.5127C58.2336 44.2536 56.9212 45.2396 56.0319 45.8801C56.6846 46.9092 58.75 47.2619 59.9477 46.7005C60.9804 46.2183 61.3175 44.7502 59.9477 44.5127Z" fill="#C62030"/>
<path fill-rule="evenodd" clip-rule="evenodd" d="M118.218 -5.2716e-06C120.011 0.662107 120.886 3.55525 119.932 5.7575C121.28 6.46999 121.409 9.15442 120.62 10.6586C122.126 11.3207 123.259 12.3786 124.134 13.7604C126.128 16.9918 127.032 21.0509 123.238 23.3539C119.229 25.7288 109.97 24.7932 106.886 29.1905C103.896 33.4367 103.831 39.9714 106.571 44.3256C101.709 41.2309 102.096 31.2057 105.854 27.3337C110.286 22.7637 116.697 24.2895 121.538 22.0224C125.045 20.3816 124.17 16.7687 122.37 14.0195C121.495 12.6953 120.391 11.7669 118.806 11.2631C120.018 9.93888 119.702 6.88741 118.519 5.80068C119.215 4.51244 119.559 2.54769 118.282 1.47535C116.683 2.49011 116.97 4.21736 117.673 5.69272C116.059 7.32642 116.181 9.31275 117.042 11.3639C112.896 11.9756 111.548 15.4445 110.515 19.2157C110.566 14.8687 112.208 11.6589 115.536 10.4355C114.818 8.68663 115.564 6.59233 116.489 5.58477C115.406 3.38253 116.597 0.734076 118.232 -0.00720215L118.218 -5.2716e-06ZM114.037 42.476C112.796 39.4029 114.854 37.0135 117.787 37.0639C121.359 37.1287 123.467 40.0938 123.259 43.4835C122.973 47.5642 119.587 49.2626 115.622 48.9963C113.743 48.8668 112.394 48.2263 110.895 47.4058C112.136 47.9096 113.671 48.363 115.414 48.2263C118.218 48.0104 120.462 46.2903 120.728 43.5339C120.964 41.2525 119.408 39.662 117.479 39.4533C115.442 39.2662 114.575 40.8567 114.044 42.476H114.037ZM109.669 28.478C114.747 32.4291 109.791 42.6055 107.675 47.2259C103.91 55.4303 110.895 58.4386 118.16 58.0932C114.618 56.6898 112.323 54.0126 110.58 50.7524C113.334 53.2425 117.458 57.2224 121.517 56.9057C127.448 56.4811 126.623 49.3922 125.189 45.3763C124.471 43.4116 123.388 41.4756 122.786 39.0934C120.706 31.0329 125.346 24.0664 134.067 26.7364C138.427 28.0606 141.411 30.8962 144 34.0772C140.93 31.256 137.667 29.4064 133.544 28.7659C128.201 27.9383 124.02 29.9606 124.077 35.934C124.127 41.3461 127.67 45.2684 128.437 50.1694C129.47 56.7258 124.199 59.9716 118.397 58.1508C110.479 61.4181 101.257 54.9266 106.32 45.5562C108.557 41.4756 111.878 33.0553 109.669 28.4852V28.478Z" fill="#C62030"/>
</g>
<defs>
<clipPath id="clip0_3_7">
<rect width="144" height="59" fill="white"/>
</clipPath>
</defs>
</svg>
